<svg xmlns="http://www.w3.org/2000/svg" width="33" height="32" viewBox="0 0 33 32" fill="none">
  <path d="M21.3303 19.1947C21.8807 18.8185 22.6442 18.4929 22.6442 18.4929C22.6442 18.4929 20.4712 18.886 18.3094 19.0657C15.6647 19.2846 12.8234 19.3295 11.3972 19.1386C8.02244 18.6894 13.2501 17.4484 13.2501 17.4484C13.2501 17.4484 11.2231 17.3137 8.72431 18.5152C5.77644 19.9415 16.024 20.5929 21.3303 19.1947Z" fill="#5382A1"/>
  <path d="M16.5352 17.3923C15.4683 14.9947 11.869 12.8889 16.5352 9.20544C22.3581 4.61231 19.3708 1.625 19.3708 1.625C20.5781 6.36981 15.1258 7.80731 13.1548 10.7552C11.8128 12.7711 13.8118 14.9329 16.5352 17.3923Z" fill="#F8981D"/>
  <path d="M22.97 7.49854C22.9757 7.49854 13.1323 9.95797 17.8322 15.3709C19.2192 16.9657 17.4672 18.4032 17.4672 18.4032C17.4672 18.4032 20.988 16.5839 19.3708 14.3097C17.8603 12.1872 16.7035 11.1315 22.97 7.49854Z" fill="#F8981D"/>
  <path d="M22.6274 22.6875C22.5994 22.7548 22.5151 22.8279 22.5151 22.8335C29.7193 20.9411 27.0689 16.157 23.6268 17.37C23.3236 17.4766 23.1665 17.7237 23.1665 17.7237C23.1665 17.7237 23.3573 17.645 23.7842 17.5552C25.5248 17.1903 28.0236 19.8855 22.6274 22.6875Z" fill="#5382A1"/>
  <path d="M25.2778 26.1857C25.2778 26.1857 26.092 26.854 24.385 27.3762C21.1339 28.3588 10.8638 28.6564 8.0113 27.4155C6.98373 26.9719 8.90967 26.3485 9.51617 26.2195C10.145 26.0847 10.51 26.107 10.51 26.107C9.37011 25.3041 3.1373 27.685 7.34305 28.3645C18.8092 30.2286 28.2539 27.5277 25.2778 26.1857Z" fill="#5382A1"/>
  <path d="M12.7224 23.8611C8.30329 25.0965 15.4121 27.6458 21.0384 25.2368C20.1176 24.8775 19.455 24.462 19.455 24.462C16.945 24.9393 15.7827 24.9729 13.5029 24.7146C11.6219 24.5013 12.7224 23.8611 12.7224 23.8611Z" fill="#5382A1"/>
  <path d="M22.8184 29.3191C18.3993 30.1501 12.9471 30.0547 9.71826 29.5211C9.71826 29.5156 10.3809 30.0659 13.7836 30.2849C18.9608 30.6162 26.9118 30.0995 27.0971 27.6514C27.0971 27.6514 26.7378 28.5779 22.8184 29.3191Z" fill="#5382A1"/>
  <path d="M20.3702 21.4464C17.046 22.0866 15.12 22.0697 12.6887 21.8171C10.8076 21.6205 12.0373 20.7109 12.0373 20.7109C7.16346 22.3281 14.7438 24.1587 21.5549 22.1652C20.8306 21.9125 20.3702 21.4464 20.3702 21.4464Z" fill="#5382A1"/>
</svg>