<svg width="336" height="224" viewBox="0 0 336 224" fill="none" xmlns="http://www.w3.org/2000/svg">
<g clip-path="url(#clip0_293_704)">
<path d="M16 8C16 3.58172 12.4183 0 8 0C3.58172 0 0 3.58172 0 8C0 12.4183 3.58172 16 8 16C12.4183 16 16 12.4183 16 8Z" fill="#1C2A38"/>
<path d="M138 0H34C29.5817 0 26 3.58172 26 8C26 12.4183 29.5817 16 34 16H138C142.418 16 146 12.4183 146 8C146 3.58172 142.418 0 138 0Z" fill="#0099B3"/>
<path d="M188 0H164C159.582 0 156 3.58172 156 8C156 12.4183 159.582 16 164 16H188C192.418 16 196 12.4183 196 8C196 3.58172 192.418 0 188 0Z" fill="#D9D9D9"/>
<path d="M298 0H214C209.582 0 206 3.58172 206 8C206 12.4183 209.582 16 214 16H298C302.418 16 306 12.4183 306 8C306 3.58172 302.418 0 298 0Z" fill="#0099B3"/>
<path d="M16 34C16 29.5817 12.4183 26 8 26C3.58172 26 0 29.5817 0 34C0 38.4183 3.58172 42 8 42C12.4183 42 16 38.4183 16 34Z" fill="#1C2A38"/>
<path d="M118 26H34C29.5817 26 26 29.5817 26 34C26 38.4183 29.5817 42 34 42H118C122.418 42 126 38.4183 126 34C126 29.5817 122.418 26 118 26Z" fill="#D9D9D9"/>
<path d="M208 26H144C139.582 26 136 29.5817 136 34C136 38.4183 139.582 42 144 42H208C212.418 42 216 38.4183 216 34C216 29.5817 212.418 26 208 26Z" fill="#85CF26"/>
<path d="M258 26H234C229.582 26 226 29.5817 226 34C226 38.4183 229.582 42 234 42H258C262.418 42 266 38.4183 266 34C266 29.5817 262.418 26 258 26Z" fill="#D9D9D9"/>
<path d="M16 60C16 55.5817 12.4183 52 8 52C3.58172 52 0 55.5817 0 60C0 64.4183 3.58172 68 8 68C12.4183 68 16 64.4183 16 60Z" fill="#1C2A38"/>
<path d="M78 52H34C29.5817 52 26 55.5817 26 60C26 64.4183 29.5817 68 34 68H78C82.4183 68 86 64.4183 86 60C86 55.5817 82.4183 52 78 52Z" fill="#FE0163"/>
<path d="M168 52H104C99.5817 52 96 55.5817 96 60C96 64.4183 99.5817 68 104 68H168C172.418 68 176 64.4183 176 60C176 55.5817 172.418 52 168 52Z" fill="#85CF26"/>
<path d="M328 52H194C189.582 52 186 55.5817 186 60C186 64.4183 189.582 68 194 68H328C332.418 68 336 64.4183 336 60C336 55.5817 332.418 52 328 52Z" fill="#D9D9D9"/>
<path d="M16 86C16 81.5817 12.4183 78 8 78C3.58172 78 0 81.5817 0 86C0 90.4183 3.58172 94 8 94C12.4183 94 16 90.4183 16 86Z" fill="#1C2A38"/>
<path d="M108 78H84C79.5817 78 76 81.5817 76 86C76 90.4183 79.5817 94 84 94H108C112.418 94 116 90.4183 116 86C116 81.5817 112.418 78 108 78Z" fill="#FE0163"/>
<path d="M238 78H134C129.582 78 126 81.5817 126 86C126 90.4183 129.582 94 134 94H238C242.418 94 246 90.4183 246 86C246 81.5817 242.418 78 238 78Z" fill="#D9D9D9"/>
<path d="M16 112C16 107.582 12.4183 104 8 104C3.58172 104 0 107.582 0 112C0 116.418 3.58172 120 8 120C12.4183 120 16 116.418 16 112Z" fill="#1C2A38"/>
<path d="M168 104H84C79.5817 104 76 107.582 76 112C76 116.418 79.5817 120 84 120H168C172.418 120 176 116.418 176 112C176 107.582 172.418 104 168 104Z" fill="#0099B3"/>
<path d="M208 104H194C189.582 104 186 107.582 186 112C186 116.418 189.582 120 194 120H208C212.418 120 216 116.418 216 112C216 107.582 212.418 104 208 104Z" fill="#FE0163"/>
<path d="M268 104H234C229.582 104 226 107.582 226 112C226 116.418 229.582 120 234 120H268C272.418 120 276 116.418 276 112C276 107.582 272.418 104 268 104Z" fill="#8C52FC"/>
<path d="M16 138C16 133.582 12.4183 130 8 130C3.58172 130 0 133.582 0 138C0 142.418 3.58172 146 8 146C12.4183 146 16 142.418 16 138Z" fill="#1C2A38"/>
<path d="M78 130H34C29.5817 130 26 133.582 26 138C26 142.418 29.5817 146 34 146H78C82.4183 146 86 142.418 86 138C86 133.582 82.4183 130 78 130Z" fill="#FE0163"/>
<path d="M168 130H104C99.5817 130 96 133.582 96 138C96 142.418 99.5817 146 104 146H168C172.418 146 176 142.418 176 138C176 133.582 172.418 130 168 130Z" fill="#85CF26"/>
<path d="M328 130H194C189.582 130 186 133.582 186 138C186 142.418 189.582 146 194 146H328C332.418 146 336 142.418 336 138C336 133.582 332.418 130 328 130Z" fill="#D9D9D9"/>
<path d="M16 164C16 159.582 12.4183 156 8 156C3.58172 156 0 159.582 0 164C0 168.418 3.58172 172 8 172C12.4183 172 16 168.418 16 164Z" fill="#1C2A38"/>
<path d="M168 156H84C79.5817 156 76 159.582 76 164C76 168.418 79.5817 172 84 172H168C172.418 172 176 168.418 176 164C176 159.582 172.418 156 168 156Z" fill="#8C52FC"/>
<path d="M228 156H194C189.582 156 186 159.582 186 164C186 168.418 189.582 172 194 172H228C232.418 172 236 168.418 236 164C236 159.582 232.418 156 228 156Z" fill="#D9D9D9"/>
<path d="M268 156H254C249.582 156 246 159.582 246 164C246 168.418 249.582 172 254 172H268C272.418 172 276 168.418 276 164C276 159.582 272.418 156 268 156Z" fill="#85CF26"/>
<path d="M16 190C16 185.582 12.4183 182 8 182C3.58172 182 0 185.582 0 190C0 194.418 3.58172 198 8 198C12.4183 198 16 194.418 16 190Z" fill="#1C2A38"/>
<path d="M168 182H84C79.5817 182 76 185.582 76 190C76 194.418 79.5817 198 84 198H168C172.418 198 176 194.418 176 190C176 185.582 172.418 182 168 182Z" fill="#0099B3"/>
<path d="M208 182H194C189.582 182 186 185.582 186 190C186 194.418 189.582 198 194 198H208C212.418 198 216 194.418 216 190C216 185.582 212.418 182 208 182Z" fill="#FE0163"/>
<path d="M268 182H234C229.582 182 226 185.582 226 190C226 194.418 229.582 198 234 198H268C272.418 198 276 194.418 276 190C276 185.582 272.418 182 268 182Z" fill="#8C52FC"/>
<path d="M16 216C16 211.582 12.4183 208 8 208C3.58172 208 0 211.582 0 216C0 220.418 3.58172 224 8 224C12.4183 224 16 220.418 16 216Z" fill="#1C2A38"/>
<path d="M58 208H34C29.5817 208 26 211.582 26 216C26 220.418 29.5817 224 34 224H58C62.4183 224 66 220.418 66 216C66 211.582 62.4183 208 58 208Z" fill="#FE0163"/>
<path d="M208 208H84C79.5817 208 76 211.582 76 216C76 220.418 79.5817 224 84 224H208C212.418 224 216 220.418 216 216C216 211.582 212.418 208 208 208Z" fill="#FFB800"/>
<path d="M278 208H234C229.582 208 226 211.582 226 216C226 220.418 229.582 224 234 224H278C282.418 224 286 220.418 286 216C286 211.582 282.418 208 278 208Z" fill="#85CF26"/>
</g>
<defs>
<clipPath id="clip0_293_704">
<rect width="336" height="224" fill="white"/>
</clipPath>
</defs>
</svg>
