<svg xmlns="http://www.w3.org/2000/svg" width="33" height="32" viewBox="0 0 33 32" fill="none">
  <path d="M12.6253 15.0157H19.1912C21.0172 15.0157 22.4742 13.5094 22.4742 11.6773V5.41264C22.4742 3.62982 20.9741 2.2957 19.1912 1.99445C16.9903 1.6317 14.5988 1.65014 12.6253 2.00051C9.8464 2.49239 9.34234 3.51914 9.34234 5.41882V6.75964H15.9143V8.75707H6.87703C4.96509 8.75707 3.29271 9.9067 2.77021 12.0893C2.16771 14.5914 2.14315 16.153 2.77021 18.7659C3.23746 20.7087 4.35021 22.098 6.26221 22.098H8.51853V19.0979C8.51846 16.9278 10.3936 15.0157 12.6253 15.0157Z" fill="#347AB4"/>
  <path d="M30.1859 13.0856C29.7124 11.1859 28.8149 9.75342 26.9029 9.75342H24.4377V12.6675C24.4377 14.93 22.5195 16.8357 20.3309 16.8357H13.7649C11.9697 16.8357 10.4819 18.3729 10.4819 20.1741V26.4327C10.4819 28.2155 12.0312 29.2606 13.7649 29.771C15.8429 30.3796 17.8409 30.4904 20.3308 29.771C21.9847 29.2914 23.6139 28.3263 23.6139 26.4327V25.1204H17.0541V23.0944H26.9029C28.8149 23.0944 29.5219 21.7602 30.1858 19.7622C30.8744 17.7026 30.8437 15.723 30.1859 13.0856Z" fill="#FFCA1D"/>
  <path d="M12.2133 5.59968C11.5583 5.59968 11.0273 5.06274 11.0273 4.40193C11.0332 3.73518 11.5583 3.19824 12.2133 3.19824C12.8623 3.19824 13.3993 3.74105 13.3993 4.40193C13.3992 5.06274 12.8682 5.59968 12.2133 5.59968Z" fill="white"/>
  <path d="M20.1816 28.7547C19.5267 28.7547 18.9956 28.2178 18.9956 27.557C19.0015 26.8902 19.5266 26.3533 20.1816 26.3533C20.8307 26.3533 21.3676 26.8961 21.3676 27.557C21.3676 28.2178 20.8366 28.7547 20.1816 28.7547Z" fill="white"/>
</svg>