<svg xmlns="http://www.w3.org/2000/svg" width="22" height="26" viewBox="0 0 22 26" fill="none">
  <g clip-path="url(#clip0_41_107)">
    <path d="M18.74 21.56C18.74 21.1467 18.5733 20.76 18.24 20.4C17.92 20.04 17.52 19.7133 17.04 19.42C16.56 19.1133 15.8933 18.7333 15.04 18.28C14.04 17.7467 13.2333 17.2867 12.62 16.9C12.0067 16.5 11.48 16.04 11.04 15.52C10.6133 14.9867 10.4 14.4 10.4 13.76C10.4 13.0933 10.6867 12.38 11.26 11.62C11.8467 10.8467 12.56 10.2 13.4 9.68001C14.24 9.14668 15.0133 8.88 15.72 8.88C16.5733 8.88 17.5667 8.98001 18.7 9.18001C19.8467 9.38001 20.68 9.59333 21.2 9.82V13.9H20C19.3867 12.82 18.7067 11.98 17.96 11.38C17.2267 10.78 16.4533 10.48 15.64 10.48C14.96 10.48 14.4267 10.6933 14.04 11.12C13.6533 11.5333 13.46 12.0733 13.46 12.74C13.46 13.18 13.6267 13.5933 13.96 13.98C14.2933 14.3533 14.7067 14.6933 15.2 15C15.7067 15.3067 16.3867 15.68 17.24 16.12C18.2133 16.6267 19.0067 17.0733 19.62 17.46C20.2333 17.8467 20.7467 18.3 21.16 18.82C21.5867 19.34 21.8 19.9133 21.8 20.54C21.8 21.2067 21.4867 21.9267 20.86 22.7C20.2467 23.46 19.4933 24.1067 18.6 24.64C17.7067 25.16 16.8933 25.42 16.16 25.42C15.2667 25.42 14.2 25.32 12.96 25.12C11.7333 24.92 10.8467 24.7067 10.3 24.48V20.4H11.52C12.16 21.48 12.8933 22.32 13.72 22.92C14.5467 23.52 15.3933 23.82 16.26 23.82C17.0067 23.82 17.6067 23.6 18.06 23.16C18.5133 22.7067 18.74 22.1733 18.74 21.56Z" fill="white"/>
    <path d="M9.1 0.880005C9.83333 0.880005 10.6867 0.980005 11.66 1.18001C12.6333 1.38001 13.34 1.59334 13.78 1.82001V5.84001H12.58C11.4067 3.81334 9.86 2.80001 7.94 2.80001C7.11333 2.80001 6.36 3.04668 5.68 3.54001C5.01333 4.03334 4.48 4.72001 4.08 5.60001C3.69333 6.46668 3.5 7.44668 3.5 8.54001C3.5 9.78001 3.69333 10.9133 4.08 11.94C4.46667 12.9667 5.05333 13.7933 5.84 14.42C6.62667 15.0333 7.6 15.34 8.76 15.34C9.90667 15.34 11.5733 14.56 13.76 13L14.44 14.1L10.76 16.96C10.2267 17.1333 9.71333 17.2467 9.22 17.3C8.72667 17.3667 8.2 17.4 7.64 17.4C6.2 17.4 4.92 17.06 3.8 16.38C2.69333 15.7 1.83333 14.7667 1.22 13.58C0.60667 12.38 0.300003 11.02 0.300003 9.50001C0.300003 7.94001 0.760003 6.50001 1.68 5.18001C2.61333 3.84668 3.76667 2.80001 5.14 2.04001C6.52667 1.26668 7.84667 0.880005 9.1 0.880005Z" fill="#FFB800"/>
  </g>
  <defs>
    <clipPath id="clip0_41_107">
      <rect width="22" height="26" fill="white"/>
    </clipPath>
  </defs>
</svg>