<svg xmlns="http://www.w3.org/2000/svg" width="24" height="24" viewBox="0 0 24 24" fill="none">
  <g clip-path="url(#clip0_199_25)">
    <path d="M12.0002 23.2999C18.241 23.2999 23.3002 18.2408 23.3002 12C23.3002 5.75913 18.241 0.699951 12.0002 0.699951C5.75938 0.699951 0.700195 5.75913 0.700195 12C0.700195 18.2408 5.75938 23.2999 12.0002 23.2999Z" stroke="#16423C" stroke-width="1.5" stroke-miterlimit="10" stroke-linecap="round" stroke-linejoin="round"/>
    <path d="M12 14.8999C8.5 14.8999 5.5 16.8999 4 19.8999C6 21.9999 8.9 23.1999 12 23.1999C15.1 23.1999 18 21.8999 20 19.8999C18.5 16.9999 15.5 14.8999 12 14.8999Z" stroke="#16423C" stroke-width="1.5" stroke-miterlimit="10" stroke-linecap="round" stroke-linejoin="round"/>
    <path d="M12.0004 12.3C13.9886 12.3 15.6004 10.6882 15.6004 8.69998C15.6004 6.71175 13.9886 5.09998 12.0004 5.09998C10.0122 5.09998 8.40039 6.71175 8.40039 8.69998C8.40039 10.6882 10.0122 12.3 12.0004 12.3Z" stroke="#16423C" stroke-width="1.5" stroke-miterlimit="10" stroke-linecap="round" stroke-linejoin="round"/>
  </g>
  <defs>
    <clipPath id="clip0_199_25">
      <rect width="24" height="24" fill="white"/>
    </clipPath>
  </defs>
</svg>