<svg xmlns="http://www.w3.org/2000/svg" width="34" height="34" viewBox="0 0 34 34" fill="none">
  <g clip-path="url(#clip0_199_32)">
    <path d="M17.0002 33.32C26.0135 33.32 33.3202 26.0133 33.3202 17C33.3202 7.98671 26.0135 0.679993 17.0002 0.679993C7.98689 0.679993 0.680176 7.98671 0.680176 17C0.680176 26.0133 7.98689 33.32 17.0002 33.32Z" stroke="#16423C" stroke-width="0.96" stroke-miterlimit="10" stroke-linecap="round"/>
    <path d="M20.3546 24.159C20.2553 23.0629 20.2934 22.2979 20.2934 21.2962C20.7898 21.0358 21.6792 19.3752 21.8295 17.9724C22.2198 17.9404 22.8352 17.5596 23.0154 16.0562C23.1126 15.249 22.7264 14.7948 22.4911 14.652C23.1262 12.7418 24.4454 6.83264 20.0513 6.222C19.5991 5.42776 18.441 5.02588 16.9362 5.02588C10.9155 5.13672 10.1892 9.57236 11.5091 14.652C11.2745 14.7948 10.8883 15.249 10.9848 16.0562C11.1657 17.5596 11.7804 17.9404 12.1708 17.9724C12.3204 19.3746 13.2452 21.0358 13.7429 21.2962C13.7429 22.2979 13.7803 23.0629 13.681 24.159C12.8236 26.4642 8.41987 26.6444 5.87939 28.8674C8.53547 31.5418 12.8399 33.4546 17.3823 33.4546C21.9247 33.4546 27.264 29.8683 28.1528 28.8898C25.628 26.6465 21.2141 26.4724 20.3546 24.159Z" fill="#16423C"/>
  </g>
  <defs>
    <clipPath id="clip0_199_32">
      <rect width="34" height="34" fill="white"/>
    </clipPath>
  </defs>
</svg>