<svg xmlns="http://www.w3.org/2000/svg" width="30" height="30" viewBox="0 0 30 30" fill="none">
  <path d="M9.06878 5.70625C8.93871 6.34166 8.58451 6.76298 8.00616 6.97022L4.57565 23.729C4.55217 23.8437 4.49401 23.9335 4.40119 23.9983C4.30837 24.0631 4.2102 24.0825 4.10666 24.0565L3.34211 23.8643C3.23858 23.8383 3.15757 23.7739 3.09907 23.671C3.04057 23.5682 3.02307 23.4594 3.04655 23.3446L6.47706 6.58588C6.036 6.12241 5.88051 5.57298 6.01058 4.93757C6.10632 4.46985 6.33739 4.10805 6.70379 3.85217C7.07018 3.5963 7.46443 3.52141 7.88652 3.62751C8.30862 3.7336 8.63512 3.98965 8.86603 4.39566C9.09694 4.80166 9.16452 5.23853 9.06878 5.70625ZM26.48 10.9734L24.4125 21.0736C24.3673 21.2943 24.2828 21.4516 24.1588 21.5458C24.0349 21.6399 23.8528 21.7217 23.6125 21.7912C21.6906 22.3845 20.1165 22.527 18.89 22.2188C18.4042 22.0967 17.9323 21.876 17.4743 21.5567C17.0163 21.2374 16.6276 20.917 16.3082 20.5955C15.9888 20.274 15.5723 19.9466 15.0585 19.6133C14.5447 19.28 13.9972 19.0403 13.4158 18.8942C11.8867 18.5099 9.90715 18.6897 7.47718 19.4336C7.32554 19.479 7.186 19.4857 7.05857 19.4537C6.85151 19.4016 6.68948 19.2728 6.57248 19.0671C6.45549 18.8614 6.42048 18.6438 6.46745 18.4143L8.47806 8.59204C8.53587 8.30964 8.70899 8.09798 8.99742 7.95706C9.18996 7.87555 9.54338 7.76488 10.0577 7.62506C12.154 7.03847 13.9388 6.93034 15.4122 7.30067C16.2643 7.51486 17.0345 7.843 17.7228 8.28509C18.4111 8.72718 19.2036 9.33468 20.1005 10.1076C20.3688 10.3513 20.7021 10.5232 21.1003 10.6233C21.5304 10.7314 22.0172 10.7564 22.5609 10.6982C23.1045 10.6399 23.585 10.5427 24.0023 10.4063C24.4196 10.2699 24.8125 10.1506 25.1809 10.0484C25.5494 9.9461 25.7854 9.90798 25.8889 9.93401C26.0959 9.98605 26.258 10.1149 26.375 10.3206C26.492 10.5263 26.527 10.7439 26.48 10.9734Z" fill="white"/>
</svg>