<svg xmlns="http://www.w3.org/2000/svg" width="33" height="32" viewBox="0 0 33 32" fill="none">
  <path d="M28.3105 22.9544C28.5006 22.6184 28.6188 22.2399 28.6188 21.8999V10.0998C28.6188 9.75987 28.5008 9.38139 28.3105 9.04541L16.5 15.9999L28.3105 22.9544Z" fill="#00599C"/>
  <path d="M17.5494 29.654L27.5692 23.754C27.8578 23.5841 28.1202 23.2906 28.3104 22.9545L16.4999 16L4.68945 22.9546C4.87963 23.2906 5.14205 23.5841 5.4306 23.754L15.4504 29.654C16.0276 29.994 16.9722 29.994 17.5494 29.654Z" fill="#004482"/>
  <path d="M28.3105 9.04533C28.1202 8.70926 27.8578 8.41577 27.5692 8.2458L17.5494 2.34578C16.9722 2.00583 16.0276 2.00583 15.4504 2.34578L5.43061 8.2458C4.85334 8.58566 4.3811 9.42 4.3811 10.0998V21.8999C4.3811 22.2399 4.4992 22.6184 4.68946 22.9544L16.4999 15.9999L28.3105 9.04533Z" fill="#659AD2"/>
  <path d="M16.5001 24.2401C12.0452 24.2401 8.4209 20.5436 8.4209 16C8.4209 11.4565 12.0452 7.76001 16.5001 7.76001C19.3747 7.76001 22.0557 9.33773 23.4966 11.8774L20.0001 13.941C19.279 12.6698 17.9377 11.88 16.5001 11.88C14.2726 11.88 12.4605 13.7282 12.4605 16C12.4605 18.2718 14.2726 20.1201 16.5001 20.1201C17.9379 20.1201 19.2791 19.3303 20.0004 18.0588L23.4969 20.1223C22.0559 22.6623 19.3749 24.2401 16.5001 24.2401Z" fill="white"/>
  <path d="M24.5793 15.5422H23.6816V14.6267H22.784V15.5422H21.8862V16.4578H22.784V17.3734H23.6816V16.4578H24.5793V15.5422Z" fill="white"/>
  <path d="M27.9455 15.5422H27.0478V14.6267H26.1502V15.5422H25.2524V16.4578H26.1502V17.3734H27.0478V16.4578H27.9455V15.5422Z" fill="white"/>
</svg>